<svg width="20" height="16" viewBox="0 0 20 16" fill="none" xmlns="http://www.w3.org/2000/svg">
<path fill-rule="evenodd" clip-rule="evenodd" d="M0.803664 4.35317C0.52352 6.95607 0.536008 9.95806 0.925831 12.5504C1.14153 13.9848 2.3122 15.0844 3.75727 15.21L5.2675 15.3413C8.41654 15.6151 11.5834 15.6151 14.7325 15.3413L16.2427 15.21C17.6878 15.0844 18.8584 13.9848 19.0741 12.5504C19.4639 9.95805 19.4765 6.95624 19.1963 4.35333C19.1601 4.05157 19.1194 3.75022 19.0741 3.44937C18.8584 2.01497 17.6878 0.915329 16.2427 0.789712L14.7324 0.65843C11.5834 0.38469 8.41654 0.38469 5.2675 0.658431L3.75727 0.789712C2.3122 0.915329 1.14153 2.01497 0.925831 3.44937C0.880599 3.75016 0.839876 4.05147 0.803664 4.35317ZM5.3974 2.1528C8.46001 1.88657 11.5399 1.88657 14.6025 2.1528L16.1128 2.28408C16.8671 2.34965 17.4782 2.92367 17.5908 3.67242C17.6025 3.75018 17.6139 3.82797 17.6249 3.9058L12.0639 6.99525C10.7803 7.70836 9.21955 7.70836 7.93596 6.99525L2.37502 3.90584C2.38608 3.828 2.39746 3.75019 2.40915 3.67242C2.52175 2.92367 3.13284 2.34965 3.88717 2.28408L5.3974 2.1528ZM17.8085 5.51977C18.0024 7.78752 17.9299 10.0724 17.5908 12.3273C17.4782 13.0761 16.8671 13.6501 16.1128 13.7157L14.6026 13.847C11.5399 14.1132 8.46001 14.1132 5.3974 13.847L3.88717 13.7157C3.13284 13.6501 2.52175 13.0761 2.40915 12.3273C2.07006 10.0724 1.9975 7.78754 2.19147 5.5198L7.20749 8.30648C8.94412 9.27128 11.0558 9.27128 12.7924 8.30648L17.8085 5.51977Z" fill="#7B14FF"/>
</svg>
